<svg xmlns="http://www.w3.org/2000/svg" width="18" height="11" viewBox="0 0 18 11">
    <g fill="#5C9DF5" fill-rule="evenodd">
        <path d="M1.278 8.841C.578 8.841 0 8.296 0 7.635c0-.661.578-1.206 1.278-1.206.7 0 1.279.545 1.279 1.206 0 .66-.579 1.206-1.279 1.206zM9.278 10.127C8.578 10.127 8 9.58 8 8.92c0-.66.578-1.206 1.278-1.206.7 0 1.279.546 1.279 1.206 0 .661-.579 1.207-1.279 1.207zM16.612 2.412c-.7 0-1.279-.545-1.279-1.206 0-.66.579-1.206 1.279-1.206s1.278.545 1.278 1.206c0 .66-.578 1.206-1.278 1.206zM4.568 5.367c-.7 0-1.278-.546-1.278-1.206 0-.66.578-1.207 1.278-1.207.7 0 1.278.546 1.278 1.207 0 .66-.578 1.206-1.278 1.206zm0-1.896c-.396 0-.7.288-.7.661 0 .373.304.66.7.66.396 0 .7-.287.7-.66 0-.373-.304-.66-.7-.66zM13.278 6.27c-.7 0-1.278-.546-1.278-1.206 0-.661.578-1.207 1.278-1.207.7 0 1.279.546 1.279 1.207 0 .66-.548 1.206-1.279 1.206zm0-1.867c-.395 0-.7.287-.7.66 0 .374.305.661.7.661.396 0 .7-.287.7-.66 0-.374-.304-.661-.7-.661z"/>
        <path d="M1.889 7.209c-.153-.086-.183-.259-.092-.373l2.01-1.986a.28.28 0 0 1 .396-.086c.152.086.183.258.091.373l-1.98 1.957a.324.324 0 0 1-.273.144s-.091 0-.152-.029zM8.477 8.503l-3.361-3.51a.262.262 0 0 1-.06-.373.3.3 0 0 1 .395-.057l3.361 3.509a.263.263 0 0 1 .06.373c-.03.058-.12.115-.212.115-.061 0-.122-.029-.183-.057zM9.952 8.663c-.153-.058-.244-.201-.183-.345l2.528-2.524c.061-.143.244-.2.396-.172.152.058.243.201.182.345l-2.527 2.524c-.061.114-.183.2-.305.2-.03 0-.06 0-.091-.028zM13.9 4.548c-.151-.057-.243-.2-.182-.344l2.077-2.478c.061-.143.244-.2.396-.172.152.058.243.201.183.345l-2.077 2.477c-.061.115-.183.201-.305.201-.03 0-.06 0-.091-.029z"/>
    </g>
</svg>
