<svg xmlns="http://www.w3.org/2000/svg" width="9" height="9" viewBox="0 0 9 9">
    <path fill="#5C9DF5" fill-rule="evenodd" d="M5.422 8.252a.28.28 0 0 1-.093.207l-.466.45a.3.3 0 0 1-.428 0L.093 4.708A.28.28 0 0 1 0 4.5a.28.28 0 0 1 .093-.207L4.435.09a.3.3 0 0 1 .428 0l.466.451a.28.28 0 0 1 .093.207.28.28 0 0 1-.093.208L1.668 4.5l3.661 3.544a.28.28 0 0 1 .093.208zm3.578 0a.28.28 0 0 1-.093.207l-.466.45a.3.3 0 0 1-.429 0L3.671 4.708a.28.28 0 0 1-.093-.207.28.28 0 0 1 .093-.207L8.012.09a.3.3 0 0 1 .429 0l.466.451A.28.28 0 0 1 9 .748a.28.28 0 0 1-.093.208L5.245 4.5l3.662 3.544A.28.28 0 0 1 9 8.252z"/>
</svg>
