<svg xmlns="http://www.w3.org/2000/svg" width="12" height="15" viewBox="0 0 12 15">
    <g fill="#5C9DF5" fill-rule="evenodd">
        <path d="M3.2.156H.126v14.688h11.748V.156H3.2zM.758 14.22V.78h10.485V14.22H.757z"/>
        <path d="M10.01 5.063V1.374H6.917v3.688h3.095zM7.548 2H9.38v2.438H7.547V2zM1.99 6.75h8.022v.625H1.989V6.75zm-.094 1.688h8.02v.624h-8.02v-.624zm0 1.687h8.02v.625h-8.02v-.625zm0 1.688h5.02v.624h-5.02v-.624zm0-10.563h4.01v.625h-4.01V1.25zm0 1.25h4.01v.625h-4.01V2.5z"/>
    </g>
</svg>
