<svg xmlns="http://www.w3.org/2000/svg" width="16" height="11" viewBox="0 0 16 11">
    <path fill="#5C9DF5" fill-rule="evenodd" d="M8 3H5v3h3V3zm1 5v1H4V8h5zm0-6v5H4V2h5zm5 6v1h-4V8h4zm0-2v1h-4V6h4zm0-2v1h-4V4h4zm0-2v1h-4V2h4zM2 9.5V2H1v7.5c0 .135.05.253.148.352A.48.48 0 0 0 1.5 10a.48.48 0 0 0 .352-.148A.48.48 0 0 0 2 9.5zm13 0V1H3v8.5c0 .172-.029.339-.086.5H14.5a.48.48 0 0 0 .352-.148A.48.48 0 0 0 15 9.5zM16 0v9.5c0 .417-.146.77-.438 1.063A1.447 1.447 0 0 1 14.5 11h-13c-.417 0-.77-.146-1.063-.438A1.447 1.447 0 0 1 0 9.5V1h2V0h14z"/>
</svg>
